<svg width="26" height="26" viewBox="0 0 26 26" fill="none" xmlns="http://www.w3.org/2000/svg">
<path d="M14.7387 2.90255L16.0911 1.464L16.5429 3.38598L16.702 4.06258L17.2929 3.69663L18.9715 2.6571L18.9105 4.63055L18.889 5.32527L19.5545 5.12473L21.4449 4.55506L20.8753 6.44548L20.6747 7.11097L21.3695 7.0895L23.3429 7.02853L22.3034 8.70709L21.9374 9.298L22.614 9.45707L24.536 9.90894L23.0975 11.2613L22.591 11.7373L23.2034 12.0661L24.943 13L23.2034 13.9339L22.591 14.2627L23.0975 14.7387L24.536 16.0911L22.614 16.5429L21.9374 16.702L22.3034 17.2929L23.3429 18.9715L21.3695 18.9105L20.6747 18.889L20.8753 19.5545L21.4449 21.4449L19.5545 20.8753L18.889 20.6747L18.9105 21.3695L18.9715 23.3429L17.2929 22.3034L16.702 21.9374L16.5429 22.614L16.0911 24.536L14.7387 23.0975L14.2627 22.591L13.9339 23.2034L13 24.943L12.0661 23.2034L11.7373 22.591L11.2613 23.0975L9.90894 24.536L9.45707 22.614L9.298 21.9374L8.70709 22.3034L7.02853 23.3429L7.0895 21.3695L7.11097 20.6747L6.44548 20.8753L4.55506 21.4449L5.12473 19.5545L5.32527 18.889L4.63055 18.9105L2.6571 18.9715L3.69663 17.2929L4.06258 16.702L3.38598 16.5429L1.464 16.0911L2.90255 14.7387L3.40897 14.2627L2.79659 13.9339L1.05705 13L2.79659 12.0661L3.40897 11.7373L2.90255 11.2613L1.464 9.90894L3.38598 9.45707L4.06258 9.298L3.69663 8.70709L2.6571 7.02853L4.63055 7.0895L5.32527 7.11097L5.12473 6.44548L4.55506 4.55506L6.44548 5.12473L7.11097 5.32527L7.0895 4.63055L7.02853 2.6571L8.70709 3.69663L9.298 4.06258L9.45707 3.38598L9.90894 1.464L11.2613 2.90255L11.7373 3.40897L12.0661 2.79659L13 1.05705L13.9339 2.79659L14.2627 3.40897L14.7387 2.90255Z" stroke="#00faaf" stroke-opacity="0.7"/>
</svg>
