<svg width="18" height="18" viewBox="0 0 18 18" fill="none" xmlns="http://www.w3.org/2000/svg">
<path d="M9 0.36244L11.1892 2.66037L11.2747 2.75018L11.398 2.73638L14.5521 2.38325L14.7521 5.55075L14.7599 5.67454L14.8632 5.7432L17.5063 7.5001L15.6235 10.0551L15.5499 10.1549L15.5849 10.2739L16.4803 13.3188L13.3957 14.0657L13.2751 14.0949L13.2254 14.2086L11.9542 17.1167L9.11111 15.706L9 15.6509L8.88889 15.706L6.04578 17.1166L4.77455 14.2086L4.72487 14.0949L4.60432 14.0657L1.51965 13.3188L2.41513 10.2739L2.45012 10.1549L2.37654 10.0551L0.493665 7.5001L3.13683 5.7432L3.24013 5.67454L3.24795 5.55075L3.44788 2.38325L6.60198 2.73638L6.72525 2.75018L6.81081 2.66037L9 0.36244Z" stroke="#4800a4" stroke-opacity="0.8" stroke-width="0.5"/>
</svg>
